<svg xmlns="http://www.w3.org/2000/svg" width="50" height="51" viewBox="0 0 50 51" fill="currentColor"><path d="M50 5.76316C50 2.85526 47.6429 0.5 44.7327 0.5H38.1485C37.4243 0.5 36.8317 1.09211 36.8317 1.81579V8.39474H3.95049C1.77772 8.39474 0 10.1711 0 12.3421V46.5526C0 48.7237 1.77772 50.5 3.95049 50.5H44.7327C47.5507 50.5 50 48.0263 50 45.2368V5.76316ZM39.4654 3.13158H44.7327C46.1812 3.13158 47.3663 4.31579 47.3663 5.76316V40.7105C46.5894 40.2632 45.694 39.9737 44.7327 39.9737H39.4654V3.13158ZM44.7327 47.8684H3.95049C3.22623 47.8684 2.63366 47.2763 2.63366 46.5526V12.3421C2.63366 11.6184 3.22623 11.0263 3.95049 11.0263H36.8317V41.2895C36.8317 42.0132 37.4243 42.6053 38.1485 42.6053H44.7327C46.1812 42.6053 47.3532 43.7763 47.3663 45.2368C47.3927 46.6316 46.1022 47.8684 44.7327 47.8684Z"></path><path d="M7.55861 14.0921C7.1899 13.6842 6.62366 13.5526 6.1101 13.75C5.59653 13.9474 5.26733 14.4342 5.26733 14.9737V43.9211C5.26733 44.6447 5.8599 45.2368 6.58416 45.2368H32.9207C33.4475 45.2368 33.9083 44.9342 34.119 44.4474C34.3297 43.9737 34.2376 43.4211 33.8952 43.0263L7.55861 14.0921ZM7.90098 42.6053V18.3816L29.9447 42.6053H7.90098Z"></path><path d="M11.8515 39.9736H21.0166C21.5433 39.9736 22.0042 39.671 22.2149 39.1841C22.4256 38.7104 22.3334 38.1578 21.991 37.7631L12.8259 27.6973C12.4572 27.2894 11.891 27.1578 11.3774 27.3552C10.8638 27.5525 10.5346 28.0394 10.5346 28.5788V38.6446C10.5346 39.3683 11.1272 39.9604 11.8515 39.9604V39.9736ZM13.1683 31.9867L18.0406 37.342H13.1683V31.9867Z"></path><path d="M32.9207 13.658H27.6534C26.9292 13.658 26.3366 14.2501 26.3366 14.9738V16.2896H23.7029V14.9738C23.7029 14.2501 23.1103 13.658 22.3861 13.658H17.1188C16.3945 13.658 15.8019 14.2501 15.8019 14.9738V20.2369C15.8019 20.9606 16.3945 21.5527 17.1188 21.5527H22.3861C23.1103 21.5527 23.7029 20.9606 23.7029 20.2369V18.9212H26.3366V20.2369C26.3366 20.9606 26.9292 21.5527 27.6534 21.5527H28.9702V24.1843H27.6534C26.9292 24.1843 26.3366 24.7764 26.3366 25.5001V30.7633C26.3366 31.4869 26.9292 32.079 27.6534 32.079H32.9207C33.645 32.079 34.2376 31.4869 34.2376 30.7633V25.5001C34.2376 24.7764 33.645 24.1843 32.9207 24.1843H31.6039V21.5527H32.9207C33.645 21.5527 34.2376 20.9606 34.2376 20.2369V14.9738C34.2376 14.2501 33.645 13.658 32.9207 13.658ZM21.0693 18.9212H18.4356V16.2896H21.0693V18.9212ZM31.6039 29.4475H28.9702V26.8159H31.6039V29.4475ZM31.6039 18.9212H28.9702V16.2896H31.6039V18.9212Z"></path><circle cx="25" cy="25" r="8" fill="none" stroke="#888" stroke-linecap="round" stroke-linejoin="round" stroke-width="1" opacity="0.5"></circle><path d="M28,28a3,3,0,1,1,0-4" fill="none" stroke="#888" stroke-linecap="round" stroke-linejoin="round" stroke-width="1" opacity="0.5"></path></svg>