<svg xmlns="http://www.w3.org/2000/svg" width="50" height="51" viewBox="0 0 50 51" fill="currentColor"><path d="M46.0526 0.5H3.94737C1.77632 0.5 0 2.27632 0 4.44737V22.8684C0 25.0395 1.77632 26.8158 3.94737 26.8158H39.4737V37.3421C39.4737 39.5132 37.6974 41.2895 35.5263 41.2895H22.25C21.6184 37.5658 18.3816 34.7105 14.4737 34.7105H5.26316C4.53947 34.7105 3.94737 35.3026 3.94737 36.0263V37.3421H1.31579C0.592105 37.3421 0 37.9342 0 38.6579C0 39.3816 0.592105 39.9737 1.31579 39.9737H3.94737V45.2368H1.31579C0.592105 45.2368 0 45.8289 0 46.5526C0 47.2763 0.592105 47.8684 1.31579 47.8684H3.94737V49.1842C3.94737 49.9079 4.53947 50.5 5.26316 50.5H14.4737C18.3816 50.5 21.6184 47.6447 22.25 43.9211H35.5263C39.1579 43.9211 42.1053 40.9737 42.1053 37.3421V26.8158H46.0526C48.2237 26.8158 50 25.0395 50 22.8684V4.44737C50 2.27632 48.2237 0.5 46.0526 0.5ZM14.4737 47.8684H6.57895V37.3421H14.4737C17.3816 37.3421 19.7368 39.6974 19.7368 42.6053C19.7368 45.5132 17.3816 47.8684 14.4737 47.8684ZM47.3684 22.8684C47.3684 23.5921 46.7763 24.1842 46.0526 24.1842H3.94737C3.22368 24.1842 2.63158 23.5921 2.63158 22.8684V4.44737C2.63158 3.72368 3.22368 3.13158 3.94737 3.13158H46.0526C46.7763 3.13158 47.3684 3.72368 47.3684 4.44737V22.8684Z"></path><path d="M40.7895 5.76318H30.2632C28.0921 5.76318 26.3158 7.53949 26.3158 9.71055V17.6053C26.3158 19.7763 28.0921 21.5526 30.2632 21.5526H40.7895C42.9605 21.5526 44.7368 19.7763 44.7368 17.6053V9.71055C44.7368 7.53949 42.9605 5.76318 40.7895 5.76318ZM42.1053 17.6053C42.1053 18.3289 41.5132 18.9211 40.7895 18.9211H30.2632C29.5395 18.9211 28.9474 18.3289 28.9474 17.6053V9.71055C28.9474 8.98686 29.5395 8.39476 30.2632 8.39476H40.7895C41.5132 8.39476 42.1053 8.98686 42.1053 9.71055V17.6053Z"></path><path d="M38.1579 14.9736C38.8846 14.9736 39.4737 14.3845 39.4737 13.6578C39.4737 12.9311 38.8846 12.342 38.1579 12.342C37.4312 12.342 36.8421 12.9311 36.8421 13.6578C36.8421 14.3845 37.4312 14.9736 38.1579 14.9736Z"></path><path d="M32.8947 14.9736C33.6214 14.9736 34.2105 14.3845 34.2105 13.6578C34.2105 12.9311 33.6214 12.342 32.8947 12.342C32.168 12.342 31.5789 12.9311 31.5789 13.6578C31.5789 14.3845 32.168 14.9736 32.8947 14.9736Z"></path><path d="M19.75 5.76318H9.22367C7.05262 5.76318 5.27631 7.53949 5.27631 9.71055V17.6053C5.27631 19.7763 7.05262 21.5526 9.22367 21.5526H19.75C21.9211 21.5526 23.6974 19.7763 23.6974 17.6053V9.71055C23.6974 7.53949 21.9211 5.76318 19.75 5.76318ZM21.0658 17.6053C21.0658 18.3289 20.4737 18.9211 19.75 18.9211H9.22367C8.49999 18.9211 7.90789 18.3289 7.90789 17.6053V9.71055C7.90789 8.98686 8.49999 8.39476 9.22367 8.39476H19.75C20.4737 8.39476 21.0658 8.98686 21.0658 9.71055V17.6053Z"></path><path d="M11.8553 14.9736C12.582 14.9736 13.1711 14.3845 13.1711 13.6578C13.1711 12.9311 12.582 12.342 11.8553 12.342C11.1286 12.342 10.5395 12.9311 10.5395 13.6578C10.5395 14.3845 11.1286 14.9736 11.8553 14.9736Z"></path><path d="M17.1184 14.9736C17.8451 14.9736 18.4342 14.3845 18.4342 13.6578C18.4342 12.9311 17.8451 12.342 17.1184 12.342C16.3917 12.342 15.8026 12.9311 15.8026 13.6578C15.8026 14.3845 16.3917 14.9736 17.1184 14.9736Z"></path><path d="M16.3816 41.4342L13.75 40.1184C13.3421 39.9211 12.8553 39.9342 12.4737 40.1711C12.0921 40.4079 11.8553 40.8289 11.8553 41.2895V41.7895L11.1316 41.4211C10.4737 41.0921 9.69737 41.3553 9.36842 42.0132C9.03947 42.6579 9.30263 43.4474 9.96053 43.7763L12.5921 45.0921C12.9737 45.2895 13.4868 45.2763 13.8684 45.0395C14.25 44.8026 14.4868 44.3816 14.4868 43.9211V43.4211L15.2105 43.7895C15.8684 44.1184 16.6579 43.8553 16.9737 43.1974C17.3026 42.5526 17.0395 41.7632 16.3816 41.4342Z"></path><circle cx="25" cy="25" r="8" fill="none" stroke="#888" stroke-linecap="round" stroke-linejoin="round" stroke-width="1" opacity="0.5"></circle><path d="M28,28a3,3,0,1,1,0-4" fill="none" stroke="#888" stroke-linecap="round" stroke-linejoin="round" stroke-width="1" opacity="0.5"></path></svg>