<svg xmlns="http://www.w3.org/2000/svg" width="50" height="51" viewBox="0 0 50 51" fill="currentColor"><path d="M14.4737 21.5527H17.1053C17.8289 21.5527 18.4211 20.9605 18.4211 20.2368C18.4211 19.5132 17.8289 18.9212 17.1053 18.9212H15.7895V17.6054C15.7895 16.8817 15.1974 16.2896 14.4737 16.2896C13.75 16.2896 13.1579 16.8817 13.1579 17.6054V19.158C11.6316 19.6975 10.5263 21.1448 10.5263 22.8685C10.5263 25.0396 12.3026 26.8159 14.4737 26.8159C15.1974 26.8159 15.7895 27.4079 15.7895 28.1316C15.7895 28.8553 15.1974 29.4474 14.4737 29.4474H11.8421C11.1184 29.4474 10.5263 30.0396 10.5263 30.7633C10.5263 31.4869 11.1184 32.0789 11.8421 32.0789H13.1579V33.3947C13.1579 34.1184 13.75 34.7105 14.4737 34.7105C15.1974 34.7105 15.7895 34.1184 15.7895 33.3947V31.8422C17.3158 31.3027 18.4211 29.8554 18.4211 28.1316C18.4211 25.9606 16.6447 24.1843 14.4737 24.1843C13.75 24.1843 13.1579 23.5922 13.1579 22.8685C13.1579 22.1448 13.75 21.5527 14.4737 21.5527Z"></path><path d="M46.0526 16.2895H36.8421V7.07895C36.8421 4.90789 35.0658 3.13158 32.8947 3.13158H26.3158V1.81579C26.3158 1.09211 25.7237 0.5 25 0.5H11.8421C11.1184 0.5 10.5263 1.09211 10.5263 1.81579V3.13158H3.94737C1.77632 3.13158 0 4.90789 0 7.07895V46.5526C0 48.7237 1.77632 50.5 3.94737 50.5H46.0526C48.2237 50.5 50 48.7237 50 46.5526V20.2368C50 18.0658 48.2237 16.2895 46.0526 16.2895ZM13.1579 3.13158H23.6842V5.76316H13.1579V3.13158ZM3.94737 47.8684C3.22368 47.8684 2.63158 47.2763 2.63158 46.5526V7.07895C2.63158 6.35526 3.22368 5.76316 3.94737 5.76316H10.5263V7.07895C10.5263 7.80263 11.1184 8.39474 11.8421 8.39474H25C25.7237 8.39474 26.3158 7.80263 26.3158 7.07895V5.76316H32.8947C33.6184 5.76316 34.2105 6.35526 34.2105 7.07895V16.2895H31.5789V12.3421C31.5789 11.6184 30.9868 11.0263 30.2632 11.0263H6.57895C5.85526 11.0263 5.26316 11.6184 5.26316 12.3421V37.3421C5.26316 37.6974 5.40789 38.0263 5.64474 38.2763L12.2237 44.8553C12.4737 45.1053 12.8026 45.2368 13.1579 45.2368H26.3158V46.5526C26.3158 47.0132 26.4079 47.4605 26.5526 47.8684H3.94737ZM9.75 38.6579H11.8421V40.75L9.75 38.6579ZM26.3158 20.2368V42.6053H14.4737V37.3421C14.4737 36.6184 13.8816 36.0263 13.1579 36.0263H7.89474V13.6579H28.9474V16.5263C27.4211 17.0658 26.3158 18.5132 26.3158 20.2368ZM47.3684 46.5526C47.3684 47.2763 46.7763 47.8684 46.0526 47.8684H30.2632C29.5395 47.8684 28.9474 47.2763 28.9474 46.5526V20.2368C28.9474 19.5132 29.5395 18.9211 30.2632 18.9211H46.0526C46.7763 18.9211 47.3684 19.5132 47.3684 20.2368V46.5526Z"></path><path d="M43.4211 21.5525H32.8947C32.1711 21.5525 31.5789 22.1446 31.5789 22.8683V28.1315C31.5789 28.8552 32.1711 29.4473 32.8947 29.4473H43.4211C44.1447 29.4473 44.7368 28.8552 44.7368 28.1315V22.8683C44.7368 22.1446 44.1447 21.5525 43.4211 21.5525ZM42.1053 26.8157H34.2105V24.1841H42.1053V26.8157Z"></path><path d="M43.4211 34.7105C44.1477 34.7105 44.7368 34.1214 44.7368 33.3947C44.7368 32.668 44.1477 32.0789 43.4211 32.0789C42.6944 32.0789 42.1053 32.668 42.1053 33.3947C42.1053 34.1214 42.6944 34.7105 43.4211 34.7105Z"></path><path d="M38.1579 34.7105C38.8846 34.7105 39.4737 34.1214 39.4737 33.3947C39.4737 32.668 38.8846 32.0789 38.1579 32.0789C37.4312 32.0789 36.8421 32.668 36.8421 33.3947C36.8421 34.1214 37.4312 34.7105 38.1579 34.7105Z"></path><path d="M43.4211 39.9736C44.1477 39.9736 44.7368 39.3845 44.7368 38.6578C44.7368 37.9311 44.1477 37.342 43.4211 37.342C42.6944 37.342 42.1053 37.9311 42.1053 38.6578C42.1053 39.3845 42.6944 39.9736 43.4211 39.9736Z"></path><path d="M38.1579 39.9736C38.8846 39.9736 39.4737 39.3845 39.4737 38.6578C39.4737 37.9311 38.8846 37.342 38.1579 37.342C37.4312 37.342 36.8421 37.9311 36.8421 38.6578C36.8421 39.3845 37.4312 39.9736 38.1579 39.9736Z"></path><path d="M43.4211 45.2367C44.1477 45.2367 44.7368 44.6476 44.7368 43.921C44.7368 43.1943 44.1477 42.6052 43.4211 42.6052C42.6944 42.6052 42.1053 43.1943 42.1053 43.921C42.1053 44.6476 42.6944 45.2367 43.4211 45.2367Z"></path><path d="M38.1579 45.2367C38.8846 45.2367 39.4737 44.6476 39.4737 43.921C39.4737 43.1943 38.8846 42.6052 38.1579 42.6052C37.4312 42.6052 36.8421 43.1943 36.8421 43.921C36.8421 44.6476 37.4312 45.2367 38.1579 45.2367Z"></path><path d="M32.8947 45.2367C33.6214 45.2367 34.2105 44.6476 34.2105 43.921C34.2105 43.1943 33.6214 42.6052 32.8947 42.6052C32.168 42.6052 31.5789 43.1943 31.5789 43.921C31.5789 44.6476 32.168 45.2367 32.8947 45.2367Z"></path><path d="M32.8947 39.9736C33.6214 39.9736 34.2105 39.3845 34.2105 38.6578C34.2105 37.9311 33.6214 37.342 32.8947 37.342C32.168 37.342 31.5789 37.9311 31.5789 38.6578C31.5789 39.3845 32.168 39.9736 32.8947 39.9736Z"></path><circle cx="25" cy="25" r="8" fill="none" stroke="#888" stroke-linecap="round" stroke-linejoin="round" stroke-width="1" opacity="0.5"></circle><path d="M28,28a3,3,0,1,1,0-4" fill="none" stroke="#888" stroke-linecap="round" stroke-linejoin="round" stroke-width="1" opacity="0.5"></path></svg>