<svg xmlns="http://www.w3.org/2000/svg" width="50" height="51" viewBox="0 0 50 51" fill="currentColor"><path d="M46.0526 8.39474H42.1053V4.44737C42.1053 2.27632 40.3289 0.5 38.1579 0.5H9.21053C7.5 0.5 6.05263 1.60526 5.5 3.13158H3.94737C1.77632 3.13158 0 4.90789 0 7.07895V12.3421C0 14.5132 1.77632 16.2895 3.94737 16.2895H5.5C5.90789 17.4211 6.80263 18.3026 7.93421 18.6974C7.92105 18.7763 7.89474 18.8421 7.89474 18.9211V28.1316C7.89474 30.3026 9.67105 32.0789 11.8421 32.0789C14.0132 32.0789 15.7895 30.3026 15.7895 28.1316V25.5C15.7895 24.7763 16.3816 24.1842 17.1053 24.1842C17.8289 24.1842 18.4211 24.7763 18.4211 25.5C18.4211 27.6711 20.1974 29.4474 22.3684 29.4474C24.5395 29.4474 26.3158 27.6711 26.3158 25.5V18.9211H38.1579C40.3289 18.9211 42.1053 17.1447 42.1053 14.9737V11.0263H46.0526C46.7763 11.0263 47.3684 11.6184 47.3684 12.3421V21.5526C47.3684 22.2763 46.7763 22.8684 46.0526 22.8684H32.8947C30.7237 22.8684 28.9474 24.6447 28.9474 26.8158V29.4474H27.6316C26.9079 29.4474 26.3158 30.0395 26.3158 30.7632V34.9474C24.7895 35.4868 23.6842 36.9342 23.6842 38.6579V46.5526C23.6842 48.7237 25.4605 50.5 27.6316 50.5H32.8947C35.0658 50.5 36.8421 48.7237 36.8421 46.5526V38.6579C36.8421 36.9474 35.7368 35.5 34.2105 34.9474V30.7632C34.2105 30.0395 33.6184 29.4474 32.8947 29.4474H31.5789V26.8158C31.5789 26.0921 32.1711 25.5 32.8947 25.5H46.0526C48.2237 25.5 50 23.7237 50 21.5526V12.3421C50 10.1711 48.2237 8.39474 46.0526 8.39474ZM5.26316 13.6579H3.94737C3.22368 13.6579 2.63158 13.0658 2.63158 12.3421V7.07895C2.63158 6.35526 3.22368 5.76316 3.94737 5.76316H5.26316V13.6579ZM23.6842 25.5C23.6842 26.2237 23.0921 26.8158 22.3684 26.8158C21.6447 26.8158 21.0526 26.2237 21.0526 25.5C21.0526 23.3289 19.2763 21.5526 17.1053 21.5526C14.9342 21.5526 13.1579 23.3289 13.1579 25.5V28.1316C13.1579 28.8553 12.5658 29.4474 11.8421 29.4474C11.1184 29.4474 10.5263 28.8553 10.5263 28.1316V18.9211H23.6842V25.5ZM39.4737 14.9737C39.4737 15.6974 38.8816 16.2895 38.1579 16.2895H9.21053C8.48684 16.2895 7.89474 15.6974 7.89474 14.9737V4.44737C7.89474 3.72368 8.48684 3.13158 9.21053 3.13158H10.5263V11.0263C10.5263 11.75 11.1184 12.3421 11.8421 12.3421C12.5658 12.3421 13.1579 11.75 13.1579 11.0263V3.13158H32.8947V7.07895C32.8947 7.80263 33.4868 8.39474 34.2105 8.39474C34.9342 8.39474 35.5263 7.80263 35.5263 7.07895V3.13158H38.1579C38.8816 3.13158 39.4737 3.72368 39.4737 4.44737V14.9737ZM28.9474 32.0789H31.5789V34.7105H28.9474V32.0789ZM32.8947 37.3421C33.6184 37.3421 34.2105 37.9342 34.2105 38.6579V46.5526C34.2105 47.2763 33.6184 47.8684 32.8947 47.8684H27.6316C26.9079 47.8684 26.3158 47.2763 26.3158 46.5526V38.6579C26.3158 37.9342 26.9079 37.3421 27.6316 37.3421H32.8947Z"></path><path d="M34.2105 13.658C34.9372 13.658 35.5263 13.0689 35.5263 12.3422C35.5263 11.6155 34.9372 11.0264 34.2105 11.0264C33.4838 11.0264 32.8947 11.6155 32.8947 12.3422C32.8947 13.0689 33.4838 13.658 34.2105 13.658Z"></path><circle cx="25" cy="25" r="8" fill="none" stroke="#888" stroke-linecap="round" stroke-linejoin="round" stroke-width="1" opacity="0.5"></circle><path d="M28,28a3,3,0,1,1,0-4" fill="none" stroke="#888" stroke-linecap="round" stroke-linejoin="round" stroke-width="1" opacity="0.5"></path></svg>